{"accessors" : [{"bufferView" : 0, "byteOffset" : 0, "componentType" : 5123, "count" : 64110, "type" : "SCALAR", "max" : [64109], "min" : [0]}, {"bufferView" : 1, "byteOffset" : 0, "componentType" : 5126, "count" : 64110, "type" : "VEC3", "max" : [16.83300018310547, 71, 17.090999603271484], "min" : [-19, 34.73699951171875, -1], "name" : "POSITION"}, {"bufferView" : 1, "byteOffset" : 12, "componentType" : 5126, "count" : 64110, "type" : "VEC3", "max" : [0.9607843160629272, 0.5137255191802979, 0.12156862765550613], "min" : [0.9607843160629272, 0.5137255191802979, 0.12156862765550613], "name" : "COLOR_0"}], "asset" : {"generator" : "Aspose.3D 21.10", "version" : "2.0"}, "buffers" : [{"uri" : "data:application/octet-stream;base64,", "byteLength" : 1666868}], "bufferViews" : [{"buffer" : 0, "byteOffset" : 0, "byteLength" : 128220, "target" : 34963}, {"buffer" : 0, "byteOffset" : 128224, "byteLength" : 1538640, "byteStride" : 24, "target" : 34962}], "materials" : [{"name" : "lambert2SG.001", "pbrMetallicRoughness" : {"baseColorFactor" : [1, 1, 1, 1], "metallicFactor" : 0.5, "roughnessFactor" : 0.5}, "emissiveFactor" : [0, 0, 0], "alphaMode" : "OPAQUE", "doubleSided" : false}], "meshes" : [{"primitives" : [{"attributes" : {"POSITION" : 1, "COLOR_0" : 2}, "indices" : 0, "material" : 0, "mode" : 4}]}], "nodes" : [{"mesh" : 0, "name" : "Mesh_Mesh_head_geo.001_lambert2SG.001"}, {"children" : [0], "matrix" : [1, 0, 0, 0, 0, 2.220446049250313E-16, -1, 0, 0, 1, 2.220446049250313E-16, 0, 0, 0, 0, 1]}], "scene" : 0, "scenes" : [{"nodes" : [1]}]}