{
	"accessors" : 
	[
		{
			"bufferView" : 2,
			"byteOffset" : 0,
			"componentType" : 5126,
			"count" : 9936,
			"max" : 
			[
				1,
				1,
				1,
				1
			],
			"min" : 
			[
				0.1360985487699509,
				0.0384727455675602,
				0.0328759141266346,
				1
			],
			"name" : "accessor_color_m0-PolyPaper18_-399216",
			"type" : "VEC4"
		},
		{
			"bufferView" : 2,
			"byteOffset" : 158976,
			"componentType" : 5126,
			"count" : 9936,
			"max" : 
			[
				1,
				1,
				1,
				1
			],
			"min" : 
			[
				0.1360985487699509,
				0.0384727455675602,
				0.0328759141266346,
				1
			],
			"name" : "accessor_color_m1-PolyPaper21_-403124",
			"type" : "VEC4"
		},
		{
			"bufferView" : 2,
			"byteOffset" : 317952,
			"componentType" : 5126,
			"count" : 5272,
			"max" : 
			[
				1,
				1,
				1,
				1
			],
			"min" : 
			[
				0.1360985487699509,
				0.0384727455675602,
				0.0328759141266346,
				1
			],
			"name" : "accessor_color_m2-PolyPaper8_-403148",
			"type" : "VEC4"
		},
		{
			"bufferView" : 0,
			"byteOffset" : 0,
			"componentType" : 5123,
			"count" : 17064,
			"max" : 
			[
				9935
			],
			"min" : 
			[
				0
			],
			"name" : "accessor_indices_0_m0-PolyPaper18_-399216",
			"type" : "SCALAR"
		},
		{
			"bufferView" : 0,
			"byteOffset" : 34128,
			"componentType" : 5123,
			"count" : 17256,
			"max" : 
			[
				9935
			],
			"min" : 
			[
				0
			],
			"name" : "accessor_indices_0_m1-PolyPaper21_-403124",
			"type" : "SCALAR"
		},
		{
			"bufferView" : 0,
			"byteOffset" : 68640,
			"componentType" : 5123,
			"count" : 9444,
			"max" : 
			[
				5271
			],
			"min" : 
			[
				0
			],
			"name" : "accessor_indices_0_m2-PolyPaper8_-403148",
			"type" : "SCALAR"
		},
		{
			"bufferView" : 1,
			"byteOffset" : 119232,
			"componentType" : 5126,
			"count" : 9936,
			"max" : 
			[
				1,
				0.9987207,
				1
			],
			"min" : 
			[
				-1,
				-0.9987207,
				-1
			],
			"name" : "accessor_normal_m0-PolyPaper18_-399216",
			"type" : "VEC3"
		},
		{
			"bufferView" : 1,
			"byteOffset" : 357696,
			"componentType" : 5126,
			"count" : 9936,
			"max" : 
			[
				1,
				0.9987208,
				1
			],
			"min" : 
			[
				-1,
				-0.9987207,
				-1
			],
			"name" : "accessor_normal_m1-PolyPaper21_-403124",
			"type" : "VEC3"
		},
		{
			"bufferView" : 1,
			"byteOffset" : 540192,
			"componentType" : 5126,
			"count" : 5272,
			"max" : 
			[
				1,
				1,
				1
			],
			"min" : 
			[
				-1,
				-1,
				-1
			],
			"name" : "accessor_normal_m2-PolyPaper8_-403148",
			"type" : "VEC3"
		},
		{
			"bufferView" : 1,
			"byteOffset" : 0,
			"componentType" : 5126,
			"count" : 9936,
			"max" : 
			[
				0.3300121,
				0.9257632,
				-0.05002051
			],
			"min" : 
			[
				-1.359991,
				0.6255285,
				-1.749995
			],
			"name" : "accessor_position_m0-PolyPaper18_-399216",
			"type" : "VEC3"
		},
		{
			"bufferView" : 1,
			"byteOffset" : 238464,
			"componentType" : 5126,
			"count" : 9936,
			"max" : 
			[
				0.2453941,
				0.9256008,
				-0.04997136
			],
			"min" : 
			[
				-2.210023,
				0.6355765,
				-1.710033
			],
			"name" : "accessor_position_m1-PolyPaper21_-403124",
			"type" : "VEC3"
		},
		{
			"bufferView" : 1,
			"byteOffset" : 476928,
			"componentType" : 5126,
			"count" : 5272,
			"max" : 
			[
				0.4600262,
				0.9122941,
				0.1300353
			],
			"min" : 
			[
				-2.329974,
				0.5500026,
				-1.879965
			],
			"name" : "accessor_position_m2-PolyPaper8_-403148",
			"type" : "VEC3"
		}
	],
	"asset" : 
	{
		"copyright" : "Unknown",
		"generator" : "glTF 1-to-2 Upgrader for Google Blocks",
		"version" : "2.0"
	},
	"bufferViews" : 
	[
		{
			"buffer" : 0,
			"byteLength" : 87528,
			"byteOffset" : 0,
			"name" : "ushortBufferView",
			"target" : 34963
		},
		{
			"buffer" : 0,
			"byteLength" : 603456,
			"byteOffset" : 87528,
			"byteStride" : 12,
			"name" : "vec3BufferView",
			"target" : 34962
		},
		{
			"buffer" : 0,
			"byteLength" : 402304,
			"byteOffset" : 690984,
			"byteStride" : 16,
			"name" : "vec4BufferView",
			"target" : 34962
		}
	],
	"buffers" : 
	[
		{
			"byteLength" : 1093288,
			"name" : "model",
			"uri" : "model.bin"
		}
	],
	"materials" : 
	[
		{
			"alphaMode" : "OPAQUE",
			"doubleSided" : false,
			"name" : "BlocksPaper",
			"pbrMetallicRoughness" : 
			{
				"baseColorFactor" : 
				[
					1,
					1,
					1,
					1
				],
				"metallicFactor" : 0,
				"roughnessFactor" : 0.6
			}
		},
		{
			"alphaMode" : "BLEND",
			"doubleSided" : false,
			"name" : "BlocksGlass",
			"pbrMetallicRoughness" : 
			{
				"baseColorFactor" : 
				[
					0.2,
					0.2,
					1,
					0.3
				],
				"metallicFactor" : 1,
				"roughnessFactor" : 0.4
			}
		},
		{
			"alphaMode" : "OPAQUE",
			"doubleSided" : true,
			"name" : "BlocksGem",
			"pbrMetallicRoughness" : 
			{
				"baseColorFactor" : 
				[
					1,
					0.4,
					1,
					1
				],
				"metallicFactor" : 0,
				"roughnessFactor" : 0.1
			}
		}
	],
	"meshes" : 
	[
		{
			"name" : "mesh_m0-PolyPaper18_-399216",
			"primitives" : 
			[
				{
					"attributes" : 
					{
						"COLOR_0" : 0,
						"NORMAL" : 6,
						"POSITION" : 9
					},
					"indices" : 3,
					"material" : 0,
					"mode" : 4
				}
			]
		},
		{
			"name" : "mesh_m1-PolyPaper21_-403124",
			"primitives" : 
			[
				{
					"attributes" : 
					{
						"COLOR_0" : 1,
						"NORMAL" : 7,
						"POSITION" : 10
					},
					"indices" : 4,
					"material" : 0,
					"mode" : 4
				}
			]
		},
		{
			"name" : "mesh_m2-PolyPaper8_-403148",
			"primitives" : 
			[
				{
					"attributes" : 
					{
						"COLOR_0" : 2,
						"NORMAL" : 8,
						"POSITION" : 11
					},
					"indices" : 5,
					"material" : 0,
					"mode" : 4
				}
			]
		}
	],
	"nodes" : 
	[
		{
			"matrix" : 
			[
				1,
				0,
				0,
				0,
				0,
				1,
				0,
				0,
				0,
				0,
				1,
				0,
				0,
				0,
				0,
				1
			],
			"mesh" : 0,
			"name" : "node_MeshObject-469341376-PolyPaper18"
		},
		{
			"matrix" : 
			[
				1,
				0,
				0,
				0,
				0,
				1,
				0,
				0,
				0,
				0,
				1,
				0,
				0,
				0,
				0,
				1
			],
			"mesh" : 2,
			"name" : "node_MeshObject222603392-PolyPaper8"
		},
		{
			"matrix" : 
			[
				1,
				0,
				0,
				0,
				0,
				1,
				0,
				0,
				0,
				0,
				1,
				0,
				0,
				0,
				0,
				1
			],
			"mesh" : 1,
			"name" : "node_MeshObject886530240-PolyPaper21"
		}
	],
	"scene" : 0,
	"scenes" : 
	[
		{
			"extras" : {},
			"name" : "defaultScene",
			"nodes" : 
			[
				0,
				2,
				1
			]
		}
	]
}
