{
	"accessors" : 
	[
		{
			"bufferView" : 2,
			"byteOffset" : 0,
			"componentType" : 5126,
			"count" : 9950,
			"max" : 
			[
				1,
				1,
				1,
				1
			],
			"min" : 
			[
				0.2631747424602509,
				0.05284162983298302,
				0.0328759141266346,
				1
			],
			"name" : "accessor_color_m0-PolyPaper21_-24100",
			"type" : "VEC4"
		},
		{
			"bufferView" : 2,
			"byteOffset" : 159200,
			"componentType" : 5126,
			"count" : 5100,
			"max" : 
			[
				0.9406006932258606,
				0.6940805315971375,
				0.7226724624633789,
				1
			],
			"min" : 
			[
				0.2631747424602509,
				0.05284162983298302,
				0.0328759141266346,
				1
			],
			"name" : "accessor_color_m1-PolyPaper6_-24102",
			"type" : "VEC4"
		},
		{
			"bufferView" : 0,
			"byteOffset" : 0,
			"componentType" : 5123,
			"count" : 15630,
			"max" : 
			[
				9949
			],
			"min" : 
			[
				0
			],
			"name" : "accessor_indices_0_m0-PolyPaper21_-24100",
			"type" : "SCALAR"
		},
		{
			"bufferView" : 0,
			"byteOffset" : 31260,
			"componentType" : 5123,
			"count" : 8232,
			"max" : 
			[
				5099
			],
			"min" : 
			[
				0
			],
			"name" : "accessor_indices_0_m1-PolyPaper6_-24102",
			"type" : "SCALAR"
		},
		{
			"bufferView" : 1,
			"byteOffset" : 119400,
			"componentType" : 5126,
			"count" : 9950,
			"max" : 
			[
				1,
				1,
				0.9970479
			],
			"min" : 
			[
				-0.9995714,
				-0.9999916,
				-0.9995202
			],
			"name" : "accessor_normal_m0-PolyPaper21_-24100",
			"type" : "VEC3"
		},
		{
			"bufferView" : 1,
			"byteOffset" : 300000,
			"componentType" : 5126,
			"count" : 5100,
			"max" : 
			[
				0.9984038,
				1,
				0.9957156
			],
			"min" : 
			[
				-0.9984038,
				-1,
				-0.9999662
			],
			"name" : "accessor_normal_m1-PolyPaper6_-24102",
			"type" : "VEC3"
		},
		{
			"bufferView" : 1,
			"byteOffset" : 0,
			"componentType" : 5126,
			"count" : 9950,
			"max" : 
			[
				0.3092313,
				1.270983,
				1.219629
			],
			"min" : 
			[
				-0.01815112,
				0.7392731,
				0.8312721
			],
			"name" : "accessor_position_m0-PolyPaper21_-24100",
			"type" : "VEC3"
		},
		{
			"bufferView" : 1,
			"byteOffset" : 238800,
			"componentType" : 5126,
			"count" : 5100,
			"max" : 
			[
				0.7100298,
				1.299829,
				1.529992
			],
			"min" : 
			[
				-0.2299706,
				0.6899765,
				0.5899912
			],
			"name" : "accessor_position_m1-PolyPaper6_-24102",
			"type" : "VEC3"
		}
	],
	"asset" : 
	{
		"copyright" : "Unknown",
		"generator" : "glTF 1-to-2 Upgrader for Google Blocks",
		"version" : "2.0"
	},
	"bufferViews" : 
	[
		{
			"buffer" : 0,
			"byteLength" : 47724,
			"byteOffset" : 0,
			"name" : "ushortBufferView",
			"target" : 34963
		},
		{
			"buffer" : 0,
			"byteLength" : 361200,
			"byteOffset" : 47724,
			"byteStride" : 12,
			"name" : "vec3BufferView",
			"target" : 34962
		},
		{
			"buffer" : 0,
			"byteLength" : 240800,
			"byteOffset" : 408924,
			"byteStride" : 16,
			"name" : "vec4BufferView",
			"target" : 34962
		}
	],
	"buffers" : 
	[
		{
			"byteLength" : 649724,
			"name" : "model",
			"uri" : "model.bin"
		}
	],
	"materials" : 
	[
		{
			"alphaMode" : "OPAQUE",
			"doubleSided" : false,
			"name" : "BlocksPaper",
			"pbrMetallicRoughness" : 
			{
				"baseColorFactor" : 
				[
					1,
					1,
					1,
					1
				],
				"metallicFactor" : 0,
				"roughnessFactor" : 0.6
			}
		},
		{
			"alphaMode" : "BLEND",
			"doubleSided" : false,
			"name" : "BlocksGlass",
			"pbrMetallicRoughness" : 
			{
				"baseColorFactor" : 
				[
					0.2,
					0.2,
					1,
					0.3
				],
				"metallicFactor" : 1,
				"roughnessFactor" : 0.4
			}
		},
		{
			"alphaMode" : "OPAQUE",
			"doubleSided" : true,
			"name" : "BlocksGem",
			"pbrMetallicRoughness" : 
			{
				"baseColorFactor" : 
				[
					1,
					0.4,
					1,
					1
				],
				"metallicFactor" : 0,
				"roughnessFactor" : 0.1
			}
		}
	],
	"meshes" : 
	[
		{
			"name" : "mesh_m0-PolyPaper21_-24100",
			"primitives" : 
			[
				{
					"attributes" : 
					{
						"COLOR_0" : 0,
						"NORMAL" : 4,
						"POSITION" : 6
					},
					"indices" : 2,
					"material" : 0,
					"mode" : 4
				}
			]
		},
		{
			"name" : "mesh_m1-PolyPaper6_-24102",
			"primitives" : 
			[
				{
					"attributes" : 
					{
						"COLOR_0" : 1,
						"NORMAL" : 5,
						"POSITION" : 7
					},
					"indices" : 3,
					"material" : 0,
					"mode" : 4
				}
			]
		}
	],
	"nodes" : 
	[
		{
			"matrix" : 
			[
				1,
				0,
				0,
				0,
				0,
				1,
				0,
				0,
				0,
				0,
				1,
				0,
				0,
				0,
				0,
				1
			],
			"mesh" : 1,
			"name" : "node_MeshObject-1144054208-PolyPaper6"
		},
		{
			"matrix" : 
			[
				1,
				0,
				0,
				0,
				0,
				1,
				0,
				0,
				0,
				0,
				1,
				0,
				0,
				0,
				0,
				1
			],
			"mesh" : 0,
			"name" : "node_MeshObject-1662774272-PolyPaper21"
		}
	],
	"scene" : 0,
	"scenes" : 
	[
		{
			"extras" : {},
			"name" : "defaultScene",
			"nodes" : 
			[
				1,
				0
			]
		}
	]
}